Coordinates
version=1
nRows=14
nColumns=46
inDegrees=yes

Units are S.I. units (second, meters, Newtons, ...)
Angles are in degrees.

endheader
time	pelvis_tilt	pelvis_list	pelvis_rotation	pelvis_tx	pelvis_ty	pelvis_tz	bb_angle	bb_tx	bb_ty	bb_tz	hip_flexion_r	hip_adduction_r	hip_rotation_r	knee_angle_r	knee_angle_r_beta	ankle_angle_r	subtalar_angle_r	mtp_angle_r	crank_angle_r	hip_flexion_l	hip_adduction_l	hip_rotation_l	knee_angle_l	knee_angle_l_beta	ankle_angle_l	subtalar_angle_l	mtp_angle_l	crank_angle_l	lumbar_extension	lumbar_bending	lumbar_rotation	arm_flex_r	arm_add_r	arm_rot_r	elbow_flex_r	pro_sup_r	wrist_flex_r	wrist_dev_r	arm_flex_l	arm_add_l	arm_rot_l	elbow_flex_l	pro_sup_l	wrist_flex_l	wrist_dev_l
      7.50000000	    -19.17520607	     -6.60325349	      7.18596169	      0.32934079	      1.14745961	     -0.26399160	      0.00000000	      0.50000000	      0.00000000	      0.25000000	     51.74419085	     -1.10499841	     -3.31128578	     88.64034783	      1.54706592	    -15.90884860	    -13.86850446	      0.00000000	      0.00000000	     52.99645645	     -1.53879908	     12.78740728	     51.56748666	      0.90002243	     -8.17005147	    -14.27164604	      0.00000000	      0.00000000	    -59.41003104	      4.92544178	     -3.71251851	     77.84735276	     -4.50013399	     50.83299609	     24.68434248	     45.62682477	      0.00000000	      0.00000000	     64.39992319	    -21.24072923	     33.90187545	     62.10412480	     48.48477832	      0.00000000	      0.00000000
      7.50500000	    -19.12307861	     -7.42813392	      6.94275819	      0.32903915	      1.14646994	     -0.26486852	      0.00000000	      0.50000000	      0.00000000	      0.25000000	     53.03526365	     -0.57673825	     -3.72169260	     90.69861270	      1.58298942	    -14.90336860	    -13.94255088	      0.00000000	      0.00000000	     51.77404584	     -2.61263615	     12.99036137	     49.49574640	      0.86386374	     -9.26073389	    -13.60055250	      0.00000000	      0.00000000	    -59.34226324	      5.54012542	     -3.04743037	     77.98846829	     -4.33456915	     50.93404160	     24.73713241	     45.64067716	      0.00000000	      0.00000000	     64.27580111	    -21.47100621	     33.90914982	     62.01727900	     48.47037124	      0.00000000	      0.00000000
      7.51000000	    -19.06426700	     -8.03855914	      6.66265252	      0.32878872	      1.14570049	     -0.26593451	      0.00000000	      0.50000000	      0.00000000	      0.25000000	     54.31659977	     -0.31664981	     -3.92434672	     92.77333474	      1.61920015	    -13.05004680	    -12.58942037	      0.00000000	      0.00000000	     50.44295599	     -3.56000442	     12.85605700	     47.31498614	      0.82580229	    -11.19537484	    -13.55059903	      0.00000000	      0.00000000	    -59.28342114	      5.97000463	     -2.55034570	     78.25290789	     -4.07067765	     51.59226254	     24.22127960	     45.66039158	      0.00000000	      0.00000000	     64.31006648	    -21.77696165	     34.33976719	     61.76647427	     48.48474567	      0.00000000	      0.00000000
      7.51500000	    -19.10466750	     -8.81822852	      6.41842090	      0.32840788	      1.14479995	     -0.26704137	      0.00000000	      0.50000000	      0.00000000	      0.25000000	     55.73448913	     -0.02714836	     -4.44954689	     94.67639390	      1.65241480	    -12.06208773	    -12.61332605	      0.00000000	      0.00000000	     49.27349109	     -4.59634760	     12.92676386	     45.24914459	      0.78974656	    -12.37261692	    -12.85201124	      0.00000000	      0.00000000	    -59.14744552	      6.60212175	     -1.92599946	     78.44888760	     -3.88517576	     51.75601089	     24.18992389	     45.67265164	      0.00000000	      0.00000000	     64.22641927	    -22.00485248	     34.45196036	     61.59329246	     48.47010388	      0.00000000	      0.00000000
      7.52000000	    -19.17586947	     -9.30731498	      6.06889617	      0.32805216	      1.14405594	     -0.26826279	      0.00000000	      0.50000000	      0.00000000	      0.25000000	     57.20724813	      0.02550684	     -4.65850350	     96.59386622	      1.68588100	    -10.60173532	    -11.59103002	      0.00000000	      0.00000000	     47.99207426	     -5.44978897	     12.59472858	     43.07446998	      0.75179132	    -14.22965936	    -12.89472286	      0.00000000	      0.00000000	    -58.95945372	      6.99065112	     -1.51436187	     78.72009245	     -3.53025251	     52.53641901	     23.48587947	     45.68319868	      0.00000000	      0.00000000	     64.39635228	    -22.29612561	     35.15614631	     60.99285069	     48.45915272	      0.00000000	      0.00000000
      7.52500000	    -19.19871765	     -9.84251631	      5.79793079	      0.32763878	      1.14343995	     -0.26958747	      0.00000000	      0.50000000	      0.00000000	      0.25000000	     58.62286406	     -0.01851552	     -5.09630809	     98.35970999	      1.71670079	     -9.62627544	    -11.28002418	      0.00000000	      0.00000000	     46.68365466	     -6.31360443	     12.27780575	     40.94944131	      0.71470258	    -15.82702437	    -12.64769553	      0.00000000	      0.00000000	    -58.80458313	      7.47156819	     -1.07231098	     79.16526212	     -3.14666865	     53.95688227	     22.37630379	     45.73757705	      0.00000000	      0.00000000	     64.80842258	    -22.62606994	     36.36651923	     60.07318373	     48.47179103	      0.00000000	      0.00000000
      7.53000000	    -19.36400463	    -10.50024160	      5.41831923	      0.32722597	      1.14266377	     -0.27073017	      0.00000000	      0.50000000	      0.00000000	      0.25000000	     60.21202939	      0.08423168	     -5.61096836	     99.97415674	      1.74487820	     -8.92780300	    -11.37294632	      0.00000000	      0.00000000	     45.56309136	     -7.36062384	     11.97233554	     38.98730516	      0.68045684	    -16.84374015	    -12.02065216	      0.00000000	      0.00000000	    -58.60031949	      8.01512870	     -0.46226260	     79.37759842	     -2.97527260	     54.06573272	     22.43570681	     45.75548243	      0.00000000	      0.00000000	     64.72781716	    -22.83505809	     36.43095484	     59.89327641	     48.45326741	      0.00000000	      0.00000000
      7.53500000	    -19.50536548	    -10.97546805	      4.98432351	      0.32698712	      1.14213292	     -0.27186140	      0.00000000	      0.50000000	      0.00000000	      0.25000000	     61.75223087	      0.04966449	     -6.00736857	    101.49389670	      1.77140267	     -8.23148774	    -11.35642014	      0.00000000	      0.00000000	     44.32530620	     -8.33552219	     11.25559786	     36.98733262	      0.64555074	    -18.17927004	    -11.43290916	      0.00000000	      0.00000000	    -58.40751423	      8.36277150	     -0.03168831	     79.50728418	     -2.77687908	     54.24706053	     22.38773154	     45.77480979	      0.00000000	      0.00000000	     64.62991969	    -23.03450449	     36.58554226	     59.59484148	     48.42955198	      0.00000000	      0.00000000
      7.54000000	    -19.44329324	    -10.96437953	      4.48500182	      0.32689342	      1.14217193	     -0.27301826	      0.00000000	      0.50000000	      0.00000000	      0.25000000	     63.09335708	     -0.21510840	     -5.84374405	    102.99773126	      1.79764953	     -7.44168803	    -10.69023335	      0.00000000	      0.00000000	     42.65655383	     -8.97866469	     10.05060849	     34.91916707	      0.60945444	    -19.71014170	    -11.30601028	      0.00000000	      0.00000000	    -58.33515780	      8.28489998	      0.20255344	     79.90372954	     -2.54837672	     56.44589788	     21.06430965	     45.92038013	      0.00000000	      0.00000000	     65.59142953	    -23.13741192	     38.61180551	     57.67991188	     48.43097048	      0.00000000	      0.00000000
      7.54500000	    -19.61291763	    -11.34431148	      4.09011545	      0.32669321	      1.14189041	     -0.27439240	      0.00000000	      0.50000000	      0.00000000	      0.25000000	     64.64181794	     -0.41950887	     -6.19210138	    104.25558597	      1.81960324	     -7.04238818	    -10.67326357	      0.00000000	      0.00000000	     41.41131405	     -9.81542275	      9.29552029	     33.08136430	      0.57737873	    -20.63648391	    -10.44154637	      0.00000000	      0.00000000	    -58.17792265	      8.68465641	      0.58008824	     80.09066744	     -2.40493211	     56.52556739	     21.18095410	     45.94520262	      0.00000000	      0.00000000	     65.48688515	    -23.33169768	     38.62937607	     57.48430271	     48.40953251	      0.00000000	      0.00000000
      7.55000000	    -19.63897615	    -11.45388818	      3.55632748	      0.32674563	      1.14197504	     -0.27540396	      0.00000000	      0.50000000	      0.00000000	      0.25000000	     66.04733946	     -0.60543064	     -6.20170893	    105.47587396	      1.84090128	     -6.31962575	    -10.53308445	      0.00000000	      0.00000000	     39.89282496	    -10.57905888	      8.05062876	     31.23789924	      0.54520419	    -21.54861521	     -9.40943531	      0.00000000	      0.00000000	    -58.12796319	      8.70187417	      0.74849947	     80.09388798	     -2.21328064	     56.66731325	     21.26728632	     45.97812199	      0.00000000	      0.00000000	     65.40481012	    -23.53914883	     38.71018572	     57.11152852	     48.36877056	      0.00000000	      0.00000000
      7.55500000	    -19.68853100	    -11.57137618	      3.05012278	      0.32680093	      1.14214946	     -0.27670765	      0.00000000	      0.50000000	      0.00000000	      0.25000000	     67.46321813	     -0.86821346	     -6.28525632	    106.50010952	      1.85877756	     -6.16714515	    -10.32488244	      0.00000000	      0.00000000	     38.44607510	    -11.27494835	      6.81253096	     29.57194031	      0.51612772	    -22.44360463	     -8.41717386	      0.00000000	      0.00000000	    -58.10834220	      8.80843219	      0.95925761	     80.23263555	     -2.04785687	     56.75812404	     21.36515063	     46.00114810	      0.00000000	      0.00000000	     65.38891613	    -23.73767669	     38.81112890	     56.72627997	     48.32618347	      0.00000000	      0.00000000
      7.56000000	    -19.37535195	    -11.30062834	      2.40745429	      0.32720541	      1.14287758	     -0.27793633	      0.00000000	      0.50000000	      0.00000000	      0.25000000	     68.48934372	     -1.14284264	     -5.89478504	    107.51998493	      1.87657775	     -5.78438447	     -9.67638854	      0.00000000	      0.00000000	     36.45562631	    -11.74596540	      4.94970718	     27.95552722	      0.48791599	    -23.14459448	     -7.44413134	      0.00000000	      0.00000000	    -58.41996706	      8.43024208	      0.91410091	     80.20581213	     -1.89728940	     56.94788171	     21.49224786	     46.03865185	      0.00000000	      0.00000000	     65.71972879	    -23.86327931	     39.21557260	     55.81811181	     48.24257171	      0.00000000	      0.00000000
      7.56500000	    -19.53265596	    -11.52967367	      2.03344988	      0.32719930	      1.14279002	     -0.27982901	      0.00000000	      0.50000000	      0.00000000	      0.25000000	     69.94384088	     -1.56015022	     -6.17176897	    108.29176154	      1.89004779	     -5.69676969	     -9.50415349	      0.00000000	      0.00000000	     35.29781056	    -12.29648353	      4.00989142	     26.63249720	      0.46482476	    -23.83286622	     -6.62832982	      0.00000000	      0.00000000	    -58.27917013	      8.81414366	      1.18269059	     80.35092613	     -1.85679550	     56.96665708	     21.60531461	     46.05147147	      0.00000000	      0.00000000	     65.59536472	    -23.99491237	     39.38823470	     55.45199505	     48.21186309	      0.00000000	      0.00000000
